# xmcd CD database file generated by Grip 2.95
# 
# Track frame offsets:
#       188
#       10613
#       23288
#       36563
#       49763
#       65138
#       77888
#       89588
#       103988
#       116663
#       129188
#       140755
# 
# Disc length: 2090 seconds
# 
# Revision: 3
# Processed by: cddbd v1.4b42PL1 Copyright (c) Steve Scherf et al.
# Submitted via: Grip 2.95
# 
DISCID=a308280c
DTITLE=Los Del-Tonos - Bien, mejor
DYEAR=1900
DGENRE=
TTITLE0=Escucha
TTITLE1=Calamar
TTITLE2=Listo
TTITLE3=No es amor
TTITLE4=Bien, mejor
TTITLE5=Espérame
TTITLE6=No puedo esperar
TTITLE7=Comunicación
TTITLE8=Nadie me conoce
TTITLE9=420 Libras
TTITLE10=Nadar en tu sudor
TTITLE11=Amable
EXTD=
EXTT0=
EXTT1=
EXTT2=
EXTT3=
EXTT4=
EXTT5=
EXTT6=
EXTT7=
EXTT8=
EXTT9=
EXTT10=
EXTT11=
PLAYORDER=
